<?xml version="1.0" standalone="no"?>
<!DOCTYPE svg PUBLIC "-//W3C//DTD SVG 20010904//EN"
 "http://www.w3.org/TR/2001/REC-SVG-20010904/DTD/svg10.dtd">
<svg version="1.0" xmlns="http://www.w3.org/2000/svg"
 width="240.000000pt" height="240.000000pt" viewBox="0 0 240.000000 240.000000"
 preserveAspectRatio="xMidYMid meet">

<g transform="translate(0.000000,240.000000) scale(0.100000,-0.100000)"
fill="#000000" stroke="none">
<path d="M368 2384 c-177 -42 -324 -196 -358 -373 -14 -73 -14 -1549 0 -1622
35 -183 196 -344 379 -379 73 -14 1549 -14 1622 0 183 35 344 196 379 379 14
73 14 1549 0 1622 -35 183 -196 344 -379 379 -34 6 -337 10 -820 9 -617 -1
-777 -3 -823 -15z m1537 -501 c59 -20 128 -85 145 -139 14 -42 12 -114 -16
-649 -10 -188 -21 -320 -30 -354 -18 -65 -80 -134 -156 -177 -47 -26 -63 -29
-138 -29 -72 0 -92 4 -129 25 -59 34 -83 68 -89 131 l-5 52 -121 -6 -121 -7
-30 -37 c-68 -85 -118 -131 -172 -159 -48 -24 -70 -29 -133 -29 -64 0 -82 4
-122 28 -63 37 -98 96 -98 166 0 60 16 103 61 166 l33 45 -26 28 c-38 41 -66
85 -73 115 -4 15 -11 27 -15 27 -4 0 -28 19 -54 41 -56 49 -86 104 -86 157 0
34 -5 42 -45 70 -129 91 -186 288 -111 387 51 66 69 69 310 51 116 -9 341 -25
499 -37 l289 -20 43 40 c122 113 269 156 390 114z"/>
<path d="M1747 1780 c-60 -15 -97 -39 -164 -103 -75 -72 -4 -70 -633 -22 -513
38 -500 39 -500 -33 0 -88 87 -199 173 -220 23 -6 146 -16 272 -21 316 -15
405 -22 405 -32 0 -13 -67 -11 -369 7 -254 16 -265 15 -278 -2 -19 -26 -16
-84 6 -120 36 -59 91 -75 276 -81 149 -5 199 -13 184 -27 -3 -3 -72 -1 -155 3
-100 6 -153 6 -161 -1 -20 -16 -15 -48 13 -85 31 -41 72 -63 118 -63 19 0 37
-4 40 -8 3 -5 -22 -39 -56 -78 -114 -130 -139 -190 -103 -241 9 -13 33 -27 55
-33 86 -23 172 27 270 158 l45 60 70 6 c38 3 133 7 210 8 l140 3 -3 -77 c-4
-75 -3 -79 26 -108 25 -24 39 -30 74 -30 62 0 143 42 175 91 29 44 29 40 58
619 15 293 16 329 2 362 -8 20 -26 44 -39 52 -31 20 -102 28 -151 16z m-99
-413 c13 -15 -5 -225 -21 -245 -7 -9 -36 -12 -101 -10 -73 2 -91 6 -94 19 -3
19 174 249 193 249 7 0 17 -6 23 -13z"/>
</g>
</svg>
