<svg width="45" height="45" viewBox="0 0 45 45" fill="none" xmlns="http://www.w3.org/2000/svg">
<path d="M0 17.625V15.125C0 10.5833 1.96875 6.92708 5.90625 4.15625C9.84375 1.38542 15.375 0 22.5 0C29.625 0 35.1562 1.38542 39.0937 4.15625C43.0312 6.92708 45 10.5833 45 15.125V17.625H0ZM3.4875 13.875H41.5125C41.4 11 39.5906 8.59375 36.0844 6.65625C32.5781 4.71875 28.05 3.75 22.5 3.75C16.95 3.75 12.4031 4.71875 8.85938 6.65625C5.31563 8.59375 3.525 11 3.4875 13.875ZM0 28.625V24.875C1.2375 24.875 2.31562 24.4167 3.23437 23.5C4.15312 22.5833 5.625 22.125 7.65 22.125C9.675 22.125 11.0156 22.5833 11.6719 23.5C12.3281 24.4167 13.425 24.875 14.9625 24.875C16.5 24.875 17.6344 24.4167 18.3656 23.5C19.0969 22.5833 20.475 22.125 22.5 22.125C24.525 22.125 25.9031 22.5833 26.6344 23.5C27.3656 24.4167 28.5 24.875 30.0375 24.875C31.575 24.875 32.6719 24.4167 33.3281 23.5C33.9844 22.5833 35.325 22.125 37.35 22.125C39.375 22.125 40.8469 22.5833 41.7656 23.5C42.6844 24.4167 43.7625 24.875 45 24.875V28.625C42.975 28.625 41.5781 28.1667 40.8094 27.25C40.0406 26.3333 38.8875 25.875 37.35 25.875C35.8125 25.875 34.7156 26.3333 34.0594 27.25C33.4031 28.1667 32.0625 28.625 30.0375 28.625C28.0125 28.625 26.6344 28.1667 25.9031 27.25C25.1719 26.3333 24.0375 25.875 22.5 25.875C20.9625 25.875 19.8281 26.3333 19.0969 27.25C18.3656 28.1667 16.9875 28.625 14.9625 28.625C12.9375 28.625 11.5969 28.1667 10.9406 27.25C10.2844 26.3333 9.1875 25.875 7.65 25.875C6.1125 25.875 4.95937 26.3333 4.19062 27.25C3.42187 28.1667 2.025 28.625 0 28.625ZM3.375 45C2.475 45 1.6875 44.625 1.0125 43.875C0.3375 43.125 0 42.25 0 41.25V33.25H45V41.25C45 42.25 44.6625 43.125 43.9875 43.875C43.3125 44.625 42.525 45 41.625 45H3.375ZM3.375 41.25H41.625V37H3.375V41.25Z" fill="#D5D5D5"/>
</svg>
